# xmcd
#
# Track frame offsets:
#	150
#	16557
#	39077
#	56247
#	68155
#	83740
#	100930
#	120377
#	137777
#	156232
#	182592
#	199782
#	217980
#	233655
#	252595
#	269600
#	285480
#	304100
#	326825
#
# Disc length: 4567 seconds
# Revision: 0
# Processed by: cddbd v1.5.2PL0 Copyright (c) Steve Scherf et al.
# Submitted via: dBpowerAMP V12.0
#
DISCID=0811d513
DTITLE=Various Artist - Love After Midnight
DYEAR=1900
DGENRE=Love Songs
TTITLE0=Rita Coolidge - Were All Alone
TTITLE1=Jeffrey Osbourne - Stay with me tonight
TTITLE2=Barbara Dickson - January February
TTITLE3=Sutherland Brothers - Arms of Mary
TTITLE4=Owen Paul - My favourite waste of time
TTITLE5=Earth Wind and Fire - Fantasy
TTITLE6=Heatwave - Mind blowing decisions
TTITLE7=Anne Murray - Nobody loves me like you
TTITLE8=Styx - Babe
TTITLE9=Imagination - Looking at midnight
TTITLE10=Tiffany - I think we're alone now
TTITLE11=Double - Captain of her heart
TTITLE12=Stephanie Mills - Never knew love like this before
TTITLE13=Yarborough and People - Don't stop the music
TTITLE14=Elton John - Sorry seems to be the hardest word
TTITLE15=Kate Robbins - More than in love
TTITLE16=Smokie - Lay back in the arms of someone
TTITLE17=Hall and Oates - I can go for that (no can do)
TTITLE18=Main Ingrediennt - Just don't want to be lonely
EXTD=
EXTT0=
EXTT1=
EXTT2=
EXTT3=
EXTT4=
EXTT5=
EXTT6=
EXTT7=
EXTT8=
EXTT9=
EXTT10=
EXTT11=
EXTT12=
EXTT13=
EXTT14=
EXTT15=
EXTT16=
EXTT17=
EXTT18=
PLAYORDER=
